# xmcd
#
# Track frame offsets:
#	150
#	23352
#	44520
#	63660
#	84540
#	99582
#	120504
#	140752
#	161855
#	179232
#
# Disc length: 2641 seconds
#
# Revision: 1
# Processed by: cddbd v1.5.1PL2 Copyright (c) Steve Scherf et al.
# Submitted via: audiograbber 1.83.01
#
DISCID=8d0a4f0a
DTITLE=Various Artist - Merengue Y Salsa En La Calle Con Sabor
DYEAR=2003
DGENRE=Salsa
TTITLE0=Fania  All Stars - Morena - Salsa
TTITLE1=Zafra Negra - Lo Que No Conviene - Merengue
TTITLE2=Fania All Stars - Tu No Me Calculas - Salsa
TTITLE3=Kinito Mendez - La Pegue - Merengue
TTITLE4=Bebo More - El Barbaro Del Ritmo Bonito - Salsa
TTITLE5=Zafra Negra - Coqueta Y Sabrosa - Merengue
TTITLE6=Si Soy El Son Cuba - El Eco Del Son - Salsa_Son
TTITLE7=Fania All Stars - Yo Sigo Amando A Esa Mujer - Salsa
TTITLE8=Latin Dance Beats - El Baile Del Osito - Merengue
TTITLE9=Bebo More - Amalia - Salsa
EXTD=YEAR: 2003
EXTT0=
EXTT1=
EXTT2=
EXTT3=
EXTT4=
EXTT5=
EXTT6=
EXTT7=
EXTT8=
EXTT9=
PLAYORDER=
